<svg width="19" height="20" viewBox="0 0 19 20" fill="none" xmlns="http://www.w3.org/2000/svg">
  <path d="M7.29012 20C6.46394 19.996 5.6468 19.8277 4.88626 19.505C4.12573 19.1822 3.43698 18.7114 2.86012 18.12C2.28758 17.5773 1.82767 16.9271 1.5067 16.2065C1.18573 15.486 1.01 14.7092 0.989562 13.9206C0.969128 13.132 1.10439 12.3472 1.38761 11.6109C1.67084 10.8747 2.09646 10.2015 2.64012 9.62997L10.0001 2.19997C10.3932 1.80765 10.8616 1.49905 11.3772 1.2928C11.8929 1.08655 12.4449 0.98694 13.0001 0.999972C13.5948 1.002 14.1832 1.12241 14.7309 1.35419C15.2786 1.58597 15.7746 1.92448 16.1901 2.34997C17.0171 3.14621 17.4967 4.23649 17.5248 5.38415C17.5529 6.53181 17.1272 7.64424 16.3401 8.47997L8.94012 15.91C8.7031 16.1486 8.42105 16.3378 8.11034 16.4665C7.79963 16.5953 7.46645 16.661 7.13012 16.66C6.76679 16.6605 6.40705 16.5881 6.07214 16.4473C5.73722 16.3065 5.43391 16.1 5.18012 15.84C4.67285 15.3488 4.37989 14.6773 4.36491 13.9714C4.34993 13.2655 4.61414 12.5822 5.10012 12.07L11.9301 5.20997C12.1245 5.08088 12.3579 5.02382 12.5899 5.04869C12.8219 5.07355 13.038 5.17878 13.2006 5.34613C13.3632 5.51349 13.4621 5.73244 13.4803 5.96508C13.4985 6.19772 13.4348 6.42939 13.3001 6.61997L6.47012 13.48C6.35623 13.6172 6.30079 13.7936 6.31575 13.9713C6.33072 14.149 6.41488 14.3137 6.55012 14.43C6.69083 14.5717 6.88052 14.654 7.08012 14.66C7.15405 14.661 7.22747 14.6474 7.29612 14.62C7.36477 14.5925 7.42731 14.5517 7.48012 14.5L14.8701 7.06997C15.2849 6.60915 15.5017 6.0036 15.4737 5.38422C15.4456 4.76484 15.1749 4.18138 14.7201 3.75997C14.2977 3.32141 13.7233 3.06143 13.115 3.03353C12.5067 3.00563 11.9109 3.21193 11.4501 3.60997L4.06012 11C3.70076 11.3859 3.42128 11.8392 3.23775 12.3336C3.05421 12.828 2.97025 13.3538 2.9907 13.8807C3.01115 14.4077 3.13559 14.9254 3.35688 15.4041C3.57817 15.8828 3.89194 16.313 4.28012 16.67C4.6694 17.0735 5.13519 17.3954 5.65028 17.6169C6.16538 17.8384 6.71944 17.955 7.28012 17.96C7.76354 17.9639 8.24297 17.8723 8.69087 17.6904C9.13878 17.5085 9.54633 17.2399 9.89012 16.9L17.2801 9.46997C17.3727 9.37673 17.4827 9.30264 17.604 9.25193C17.7252 9.20122 17.8552 9.17488 17.9866 9.17442C18.118 9.17395 18.2482 9.19937 18.3697 9.24923C18.4913 9.29908 18.6019 9.37239 18.6951 9.46497C18.7884 9.55755 18.8624 9.66759 18.9132 9.78881C18.9639 9.91003 18.9902 10.04 18.9907 10.1714C18.9911 10.3028 18.9657 10.433 18.9159 10.5546C18.866 10.6762 18.7927 10.7867 18.7001 10.88L11.3101 18.31C10.7854 18.8439 10.1598 19.2683 9.46974 19.5584C8.77962 19.8486 8.03873 19.9986 7.29012 20Z" fill="#88898A"/>
</svg>
