<svg width="24" height="24" fill="none" xmlns="http://www.w3.org/2000/svg"><path fill="#fff" d="M5 10h13v10H5z"/><path d="M2.1 14.194h2.2v7.705A1.101 1.101 0 005.4 23h13.2a1.1 1.1 0 001.1-1.1v-7.706h2.2a1.097 1.097 0 001.004-.653 1.099 1.099 0 00-.187-1.185l-9.9-11.008c-.417-.464-1.217-.464-1.634 0l-9.9 11.008a1.1 1.1 0 00.817 1.838zm6.544-.348c.034.104.894 2.55 3.356 2.55 2.496 0 3.346-2.518 3.355-2.545l2.09.684c-.054.166-1.372 4.062-5.445 4.062S6.609 14.7 6.555 14.536l2.089-.69z" fill="url(#paint0_linear_1184_29762)"/><path d="M4 4.5a1.5 1.5 0 113 0V11H4V4.5z" fill="#FE7C5D"/><defs><linearGradient id="paint0_linear_1184_29762" x1="12" y1="14.194" x2="3.188" y2="46.664" gradientUnits="userSpaceOnUse"><stop stop-color="#FD7B5C"/><stop offset="1" stop-color="#111315"/></linearGradient></defs></svg>